<svg id="svg" version="1.1" width="400" height="357.421875" viewBox="0 0 400 357.421875" xmlns="http://www.w3.org/2000/svg" xmlns:xlink="http://www.w3.org/1999/xlink"><g id="svgg"><path id="path0" d="M153.400 73.243 C 149.598 74.023,146.844 77.969,147.654 81.475 C 148.047 83.178,148.725 84.104,152.134 87.598 C 153.916 89.424,158.140 93.774,161.521 97.266 C 164.902 100.757,169.208 105.177,171.090 107.088 C 175.167 111.228,175.015 110.937,173.112 110.940 C 168.126 110.948,149.957 111.643,139.844 112.212 C 136.997 112.373,133.042 112.593,131.055 112.702 C 112.666 113.710,99.597 125.293,97.461 142.477 C 97.077 145.573,97.162 233.246,97.552 235.449 C 100.605 252.700,112.901 263.507,130.527 264.430 C 132.331 264.525,133.860 264.654,133.924 264.718 C 133.988 264.782,132.912 267.363,131.534 270.454 L 129.028 276.074 129.029 277.734 C 129.035 282.893,134.839 286.669,139.563 284.587 C 141.549 283.711,141.220 284.039,153.002 271.191 C 154.086 270.010,155.620 268.369,156.410 267.546 L 157.848 266.048 159.246 266.134 C 173.506 267.007,211.888 267.130,235.231 266.378 L 242.435 266.146 243.629 267.407 C 245.164 269.028,250.175 274.512,252.433 277.043 C 259.102 284.515,260.304 285.364,263.844 285.096 C 269.824 284.644,272.383 279.494,269.734 273.242 C 269.164 271.899,268.401 270.067,268.037 269.170 C 267.674 268.273,267.107 266.981,266.777 266.297 C 266.019 264.726,266.024 264.721,268.308 264.567 C 278.766 263.865,283.910 262.086,290.137 257.017 C 296.572 251.778,300.457 245.119,302.377 236.035 L 302.831 233.887 302.891 189.941 C 302.931 159.826,302.884 145.307,302.741 143.805 C 301.197 127.591,289.257 114.956,273.633 113.003 C 271.438 112.729,243.088 111.422,232.817 111.121 C 228.898 111.007,225.653 110.875,225.606 110.828 C 225.559 110.781,227.185 109.050,229.220 106.982 C 235.197 100.907,249.875 85.723,250.726 84.736 C 254.703 80.119,251.492 73.111,245.420 73.156 C 242.592 73.178,241.892 73.688,235.706 80.241 C 233.204 82.891,230.799 85.410,230.361 85.840 C 229.923 86.270,228.653 87.588,227.538 88.770 C 226.423 89.951,224.143 92.328,222.472 94.051 C 218.326 98.326,216.217 100.536,211.461 105.587 L 207.397 109.905 200.166 109.909 L 192.936 109.913 184.215 100.806 C 179.418 95.797,174.086 90.249,172.366 88.477 C 170.646 86.704,166.997 82.899,164.258 80.022 C 161.519 77.144,158.887 74.528,158.410 74.209 C 157.095 73.328,154.974 72.919,153.400 73.243 M225.293 130.284 C 238.154 130.597,263.648 131.716,269.238 132.213 C 275.446 132.765,280.584 137.181,282.546 143.652 C 283.060 145.347,283.213 229.502,282.707 232.202 C 281.563 238.305,277.062 243.362,271.484 244.808 C 270.077 245.173,263.073 245.647,249.805 246.276 C 234.405 247.006,233.550 247.033,209.570 247.568 C 200.484 247.770,172.714 247.237,158.105 246.580 C 135.676 245.571,130.030 245.235,128.398 244.813 C 126.491 244.319,124.190 243.026,122.008 241.221 C 120.437 239.921,118.590 236.738,117.639 233.691 L 117.090 231.934 117.038 189.459 C 116.981 142.397,116.911 145.141,118.249 141.859 C 120.936 135.268,125.469 132.496,134.309 132.038 C 136.440 131.928,139.678 131.749,141.504 131.641 C 151.451 131.054,167.609 130.486,186.035 130.077 C 194.135 129.897,213.627 130.000,225.293 130.284 M159.140 150.459 C 154.534 152.177,147.297 162.349,144.060 171.657 C 139.216 185.584,141.333 201.931,149.594 214.390 C 156.198 224.348,160.551 226.897,164.603 223.177 C 167.454 220.559,167.138 217.964,163.456 213.770 C 149.278 197.616,149.416 175.408,163.788 160.346 C 165.770 158.268,166.277 157.336,166.278 155.762 C 166.280 152.171,162.360 149.258,159.140 150.459 M237.584 150.538 C 235.323 151.348,233.802 153.438,233.793 155.749 C 233.787 157.370,234.302 158.306,236.305 160.322 C 243.483 167.543,247.401 177.745,247.007 188.184 C 246.619 198.439,243.349 206.319,236.064 214.551 C 232.959 218.060,232.709 220.681,235.257 223.029 C 238.365 225.894,241.251 225.444,244.902 221.524 C 262.112 203.051,263.059 174.609,247.096 155.631 C 243.103 150.883,240.506 149.493,237.584 150.538 M175.052 164.854 C 171.361 166.317,166.527 174.230,165.006 181.299 C 162.377 193.523,170.966 211.422,178.530 209.484 C 183.292 208.264,184.164 203.608,180.455 199.216 C 174.107 191.701,174.089 181.991,180.409 174.214 C 182.150 172.071,182.438 171.521,182.568 170.087 C 182.909 166.331,178.708 163.406,175.052 164.854 M220.927 164.847 C 217.102 166.583,216.303 170.520,219.144 173.633 C 226.102 181.257,226.135 191.317,219.230 199.801 C 216.217 203.502,216.672 207.231,220.360 209.069 C 223.857 210.812,227.050 208.844,231.048 202.484 C 236.435 193.913,236.988 182.775,232.472 173.810 C 228.771 166.462,224.565 163.197,220.927 164.847 M197.366 174.339 C 187.936 176.618,184.355 188.131,190.976 194.877 C 198.173 202.210,209.596 199.191,212.239 189.258 C 214.528 180.658,206.118 172.223,197.366 174.339 M335.097 355.732 C 335.042 355.875,335.065 356.102,335.147 356.235 C 335.253 356.406,335.329 356.358,335.404 356.071 C 335.522 355.618,335.255 355.322,335.097 355.732 M391.176 355.798 C 391.056 356.236,391.306 356.457,391.748 356.303 C 391.882 356.256,391.992 356.140,391.992 356.045 C 391.992 355.949,391.868 355.919,391.716 355.978 C 391.552 356.041,391.411 355.940,391.367 355.727 C 391.303 355.418,391.277 355.427,391.176 355.798 M373.438 355.880 C 373.438 355.999,373.296 356.042,373.123 355.976 C 372.892 355.887,372.840 355.938,372.927 356.166 C 372.993 356.337,373.048 356.536,373.050 356.608 C 373.052 356.680,373.146 356.606,373.260 356.445 C 373.416 356.225,373.492 356.213,373.566 356.396 C 373.660 356.627,374.219 356.752,374.219 356.543 C 374.219 356.489,374.043 356.270,373.828 356.055 C 373.613 355.840,373.438 355.761,373.438 355.880 M330.371 356.069 C 330.028 356.204,330.044 356.224,330.501 356.236 C 330.788 356.244,331.056 356.351,331.097 356.475 C 331.138 356.598,331.289 356.660,331.433 356.612 C 331.612 356.552,331.548 356.430,331.228 356.221 C 330.928 356.025,330.623 355.971,330.371 356.069 M339.648 355.977 C 339.648 356.035,339.780 356.214,339.941 356.376 C 340.195 356.630,340.234 356.631,340.234 356.383 C 340.234 356.225,340.103 356.046,339.941 355.984 C 339.780 355.922,339.648 355.919,339.648 355.977 M343.459 356.244 C 343.348 356.592,343.208 356.663,342.754 356.596 C 342.400 356.544,342.188 356.600,342.188 356.745 C 342.188 356.892,342.385 356.941,342.725 356.878 C 343.499 356.735,343.952 356.381,343.758 356.068 C 343.637 355.872,343.563 355.916,343.459 356.244 M346.487 356.053 C 346.299 356.169,346.338 356.263,346.641 356.425 C 347.105 356.673,347.346 356.459,346.981 356.123 C 346.847 355.999,346.626 355.967,346.487 356.053 M358.147 356.250 C 358.261 356.688,359.248 356.809,359.491 356.415 C 359.592 356.253,359.451 356.225,358.994 356.316 C 358.478 356.420,358.378 356.388,358.469 356.152 C 358.535 355.979,358.471 355.859,358.313 355.859 C 358.141 355.859,358.081 355.999,358.147 356.250 M371.304 356.396 C 371.313 356.692,371.364 356.824,371.418 356.689 C 371.473 356.555,371.751 356.433,372.038 356.419 C 372.498 356.395,372.507 356.382,372.119 356.307 C 371.877 356.261,371.680 356.141,371.680 356.041 C 371.680 355.941,371.592 355.859,371.484 355.859 C 371.377 355.859,371.296 356.101,371.304 356.396 M365.351 356.565 C 365.235 356.866,365.580 356.920,365.983 356.665 C 366.183 356.538,366.151 356.475,365.849 356.396 C 365.614 356.335,365.413 356.403,365.351 356.565 M361.098 356.774 C 361.021 357.054,361.080 357.240,361.268 357.312 C 361.659 357.461,361.662 357.460,361.786 357.139 C 361.856 356.956,361.800 356.892,361.628 356.958 C 361.475 357.017,361.331 356.909,361.288 356.704 C 361.224 356.395,361.199 356.404,361.098 356.774 M376.613 356.641 C 376.712 357.006,377.314 357.139,377.596 356.858 C 377.915 356.538,377.594 356.352,377.236 356.649 C 376.975 356.866,376.891 356.862,376.728 356.628 C 376.561 356.388,376.544 356.390,376.613 356.641 M393.555 356.842 C 393.555 357.286,393.853 357.357,394.010 356.950 C 394.068 356.798,393.990 356.624,393.835 356.565 C 393.650 356.494,393.555 356.588,393.555 356.842 M329.806 356.783 C 329.741 356.848,329.688 357.018,329.688 357.161 C 329.688 357.437,330.188 357.524,330.339 357.275 C 330.455 357.084,329.961 356.628,329.806 356.783 M369.727 356.802 C 369.727 356.903,369.533 357.036,369.296 357.098 C 369.059 357.160,368.919 357.265,368.985 357.332 C 369.052 357.398,369.346 357.327,369.640 357.173 C 369.979 356.995,370.092 356.843,369.950 356.756 C 369.827 356.680,369.727 356.700,369.727 356.802 " stroke="none" fill="#fb91bd" fill-rule="evenodd"></path><path id="path1" d="M190.712 19.339 C 189.095 19.414,187.381 19.531,186.904 19.599 C 186.426 19.668,184.585 19.857,182.813 20.020 C 179.649 20.311,178.644 20.450,172.754 21.410 C 159.276 23.609,143.468 28.532,131.668 34.206 C 129.910 35.051,128.434 35.742,128.388 35.742 C 128.206 35.742,119.024 40.686,118.735 40.940 C 118.565 41.089,118.364 41.211,118.288 41.211 C 117.284 41.211,102.505 51.589,97.622 55.724 C 93.233 59.440,92.285 60.308,88.371 64.188 C 83.233 69.281,80.124 72.633,76.619 76.855 C 74.963 78.851,71.668 83.103,70.699 84.497 C 70.540 84.725,70.017 85.428,69.537 86.059 C 68.657 87.217,64.570 93.316,63.254 95.436 C 58.762 102.671,52.834 114.679,50.154 121.973 C 47.357 129.581,46.151 133.410,44.434 140.137 C 43.882 142.300,43.435 144.402,42.195 150.684 C 39.557 164.039,39.202 188.210,41.433 202.441 C 41.652 203.838,41.906 205.508,41.998 206.152 C 42.552 210.046,43.676 215.396,45.097 220.898 C 48.154 232.732,55.616 251.106,60.249 258.203 C 60.495 258.579,61.467 260.205,62.409 261.816 C 64.446 265.298,65.633 267.106,69.206 272.168 C 71.300 275.134,73.647 278.162,76.548 281.641 C 82.663 288.973,91.443 297.636,98.451 303.253 C 103.483 307.286,104.965 308.387,109.535 311.488 C 113.024 313.856,120.496 318.555,120.772 318.555 C 120.818 318.555,122.030 319.196,123.465 319.980 C 133.106 325.247,144.045 329.728,154.492 332.691 C 178.472 339.491,201.767 341.001,225.586 337.301 C 235.815 335.711,247.626 332.659,255.916 329.461 C 261.187 327.428,263.308 326.564,266.016 325.343 C 268.958 324.017,275.876 320.624,276.270 320.314 C 276.377 320.230,277.563 319.551,278.906 318.805 C 293.723 310.581,309.161 298.142,319.948 285.738 C 322.738 282.530,325.128 279.662,326.130 278.320 C 326.731 277.515,327.942 275.933,328.819 274.805 C 330.422 272.745,331.544 271.188,332.813 269.262 C 333.188 268.692,334.078 267.354,334.790 266.290 C 335.501 265.226,336.364 263.872,336.707 263.281 C 337.050 262.690,337.599 261.768,337.927 261.230 C 338.255 260.693,338.751 259.814,339.030 259.277 C 339.309 258.740,339.947 257.623,340.448 256.794 C 342.404 253.558,346.908 244.047,349.214 238.281 C 352.025 231.255,356.023 217.623,357.119 211.328 C 358.948 200.823,359.540 195.885,359.978 187.500 C 360.573 176.096,359.518 159.330,357.628 150.140 C 357.513 149.579,357.196 147.935,356.924 146.484 C 355.144 136.991,350.841 123.528,346.691 114.466 C 346.171 113.331,345.330 111.479,344.822 110.352 C 341.667 103.347,336.066 93.885,330.198 85.645 C 318.458 69.158,303.025 54.496,286.133 43.781 C 285.542 43.406,284.751 42.905,284.375 42.667 C 277.703 38.443,267.481 33.347,259.863 30.446 C 258.467 29.914,257.104 29.385,256.836 29.271 C 254.563 28.299,245.529 25.425,241.602 24.424 C 240.688 24.191,239.326 23.834,238.574 23.631 C 237.138 23.243,231.030 22.021,227.051 21.326 C 216.313 19.452,203.440 18.747,190.712 19.339 M156.847 73.451 C 158.142 73.781,159.266 74.778,164.258 80.022 C 166.997 82.899,170.646 86.704,172.366 88.477 C 174.086 90.249,179.418 95.797,184.215 100.806 L 192.936 109.913 200.166 109.909 L 207.397 109.905 211.461 105.587 C 216.217 100.536,218.326 98.326,222.472 94.051 C 224.143 92.328,226.423 89.951,227.538 88.770 C 228.653 87.588,229.923 86.270,230.361 85.840 C 230.799 85.410,233.204 82.891,235.706 80.241 C 241.892 73.688,242.592 73.178,245.420 73.156 C 251.492 73.111,254.703 80.119,250.726 84.736 C 249.875 85.723,235.197 100.907,229.220 106.982 C 227.185 109.050,225.559 110.781,225.606 110.828 C 225.653 110.875,228.898 111.007,232.817 111.121 C 243.088 111.422,271.438 112.729,273.633 113.003 C 289.257 114.956,301.197 127.591,302.741 143.805 C 302.884 145.307,302.931 159.826,302.891 189.941 L 302.831 233.887 302.377 236.035 C 300.457 245.119,296.572 251.778,290.137 257.017 C 283.910 262.086,278.766 263.865,268.308 264.567 C 266.024 264.721,266.019 264.726,266.777 266.297 C 267.107 266.981,267.674 268.273,268.037 269.170 C 268.401 270.067,269.164 271.899,269.734 273.242 C 272.383 279.494,269.824 284.644,263.844 285.096 C 260.304 285.364,259.102 284.515,252.433 277.043 C 250.175 274.512,245.164 269.028,243.629 267.407 L 242.435 266.146 235.231 266.378 C 211.888 267.130,173.506 267.007,159.246 266.134 L 157.848 266.048 156.410 267.546 C 155.620 268.369,154.086 270.010,153.002 271.191 C 141.220 284.039,141.549 283.711,139.563 284.587 C 134.839 286.669,129.035 282.893,129.029 277.734 L 129.028 276.074 131.534 270.454 C 132.912 267.363,133.988 264.782,133.924 264.718 C 133.860 264.654,132.331 264.525,130.527 264.430 C 112.901 263.507,100.605 252.700,97.552 235.449 C 97.162 233.246,97.077 145.573,97.461 142.477 C 99.597 125.293,112.666 113.710,131.055 112.702 C 133.042 112.593,136.997 112.373,139.844 112.212 C 149.957 111.643,168.126 110.948,173.112 110.940 C 175.015 110.937,175.167 111.228,171.090 107.088 C 169.208 105.177,164.902 100.757,161.521 97.266 C 158.140 93.774,153.916 89.424,152.134 87.598 C 148.066 83.429,147.207 81.936,147.527 79.598 C 148.151 75.047,152.321 72.296,156.847 73.451 M186.035 130.077 C 167.609 130.486,151.451 131.054,141.504 131.641 C 139.678 131.749,136.440 131.928,134.309 132.038 C 125.469 132.496,120.936 135.268,118.249 141.859 C 116.911 145.141,116.981 142.397,117.038 189.459 L 117.090 231.934 117.639 233.691 C 118.590 236.738,120.437 239.921,122.008 241.221 C 124.190 243.026,126.491 244.319,128.398 244.813 C 130.030 245.235,135.676 245.571,158.105 246.580 C 172.714 247.237,200.484 247.770,209.570 247.568 C 233.550 247.033,234.405 247.006,249.805 246.276 C 263.073 245.647,270.077 245.173,271.484 244.808 C 277.062 243.362,281.563 238.305,282.707 232.202 C 283.213 229.502,283.060 145.347,282.546 143.652 C 280.945 138.370,277.203 134.427,272.168 132.718 C 267.937 131.282,210.748 129.528,186.035 130.077 M163.195 150.807 C 165.737 152.002,167.037 155.459,165.828 157.807 C 165.580 158.287,164.663 159.429,163.788 160.346 C 149.416 175.408,149.278 197.616,163.456 213.770 C 167.138 217.964,167.454 220.559,164.603 223.177 C 161.115 226.379,157.419 224.900,152.325 218.262 C 138.305 199.994,137.825 176.292,151.109 158.203 C 156.282 151.158,159.610 149.122,163.195 150.807 M241.898 150.839 C 244.727 152.295,249.330 157.856,252.600 163.770 C 262.722 182.069,259.560 205.790,244.902 221.524 C 241.251 225.444,238.365 225.894,235.257 223.029 C 232.709 220.681,232.959 218.060,236.064 214.551 C 243.349 206.319,246.619 198.439,247.007 188.184 C 247.401 177.745,243.483 167.543,236.305 160.322 C 234.302 158.306,233.787 157.370,233.793 155.749 C 233.808 151.683,238.278 148.976,241.898 150.839 M179.602 165.093 C 183.308 166.974,183.601 170.285,180.409 174.214 C 174.089 181.991,174.107 191.701,180.455 199.216 C 183.227 202.498,183.572 205.193,181.527 207.583 C 178.738 210.842,175.140 210.322,171.611 206.152 C 162.791 195.729,162.163 180.696,170.085 169.648 C 173.488 164.902,176.441 163.488,179.602 165.093 M225.338 165.043 C 228.337 166.542,232.469 172.524,234.167 177.823 C 236.741 185.858,235.542 195.333,231.048 202.484 C 227.050 208.844,223.857 210.812,220.360 209.069 C 216.672 207.231,216.217 203.502,219.230 199.801 C 226.135 191.317,226.102 181.257,219.144 173.633 C 214.928 169.013,219.790 162.271,225.338 165.043 M203.035 174.318 C 212.453 176.702,215.721 188.380,208.887 195.230 C 199.102 205.038,182.764 193.596,188.786 181.152 C 191.237 176.089,197.729 172.975,203.035 174.318 M331.980 355.604 C 331.791 355.653,331.678 355.762,331.730 355.846 C 331.782 355.930,331.585 355.960,331.293 355.914 L 330.762 355.830 331.250 356.231 C 331.649 356.559,331.676 356.633,331.396 356.636 C 331.208 356.639,331.055 356.563,331.055 356.467 C 331.055 356.372,330.791 356.256,330.469 356.208 C 330.064 356.149,329.883 356.204,329.883 356.386 C 329.883 356.532,329.658 356.736,329.383 356.840 C 329.108 356.945,328.937 357.119,329.004 357.226 C 329.212 357.563,329.637 357.440,329.749 357.011 C 329.841 356.662,329.899 356.640,330.142 356.865 C 330.299 357.010,330.388 357.195,330.339 357.275 C 330.290 357.356,335.534 357.422,341.992 357.422 C 349.770 357.422,353.693 357.356,353.613 357.227 C 353.547 357.119,353.278 357.031,353.016 357.031 C 352.754 357.031,352.539 356.963,352.539 356.879 C 352.539 356.311,349.527 356.150,349.127 356.697 C 348.795 357.151,348.647 357.118,348.777 356.618 C 348.869 356.268,348.822 356.226,348.466 356.339 C 348.236 356.412,348.047 356.400,348.046 356.312 C 348.046 356.224,347.775 356.143,347.444 356.131 C 347.113 356.119,346.947 356.174,347.075 356.253 C 347.235 356.352,347.243 356.436,347.098 356.526 C 346.983 356.597,346.712 356.478,346.496 356.262 C 346.253 356.019,345.976 355.917,345.771 355.995 C 345.519 356.092,345.470 356.045,345.565 355.796 C 345.634 355.616,345.644 355.469,345.586 355.469 C 345.379 355.469,344.626 355.923,344.485 356.133 C 344.396 356.267,344.341 356.226,344.339 356.022 C 344.337 355.843,344.446 355.652,344.580 355.598 C 344.721 355.541,344.675 355.493,344.470 355.484 C 344.275 355.476,343.951 355.556,343.752 355.663 C 343.134 355.994,339.624 355.916,338.308 355.543 C 337.893 355.425,337.860 355.459,337.984 355.880 L 338.122 356.348 337.800 355.908 C 337.437 355.413,336.719 355.315,336.719 355.762 C 336.719 355.923,336.587 356.055,336.426 356.055 C 336.265 356.055,336.133 355.977,336.133 355.882 C 336.133 355.787,335.960 355.664,335.749 355.609 C 335.538 355.554,335.372 355.566,335.381 355.635 C 335.477 356.373,335.334 356.520,335.005 356.022 C 334.755 355.643,334.579 355.546,334.361 355.668 C 334.192 355.762,333.725 355.758,333.291 355.657 C 332.866 355.559,332.476 355.486,332.422 355.496 C 332.368 355.506,332.169 355.554,331.980 355.604 M389.453 355.664 C 389.681 355.811,389.615 355.860,389.160 355.884 C 387.106 355.992,386.863 356.111,387.071 356.906 C 387.177 357.311,387.169 357.313,386.823 356.968 C 386.481 356.626,386.146 356.776,386.136 357.275 C 386.134 357.356,388.022 357.422,390.332 357.422 C 392.826 357.422,394.531 357.347,394.531 357.238 C 394.531 356.946,394.074 356.743,393.989 356.997 C 393.865 357.370,393.555 357.259,393.555 356.842 C 393.555 356.559,393.645 356.490,393.896 356.582 C 394.203 356.694,394.200 356.664,393.866 356.283 C 393.426 355.781,392.311 355.708,391.867 356.152 C 391.653 356.366,391.477 356.392,391.210 356.250 C 391.010 356.142,390.664 356.055,390.443 356.055 C 390.214 356.055,390.039 355.928,390.039 355.762 C 390.039 355.587,389.861 355.470,389.600 355.472 C 389.244 355.474,389.216 355.511,389.453 355.664 M372.021 355.799 C 371.542 355.924,371.596 356.207,372.119 356.307 C 372.507 356.382,372.498 356.395,372.038 356.419 C 371.751 356.433,371.473 356.555,371.418 356.689 C 371.364 356.824,371.313 356.692,371.304 356.396 C 371.289 355.841,371.015 355.725,370.508 356.058 C 370.247 356.229,370.247 356.273,370.508 356.458 C 370.733 356.618,370.687 356.633,370.313 356.526 C 369.054 356.163,368.570 356.108,368.500 356.317 C 368.452 356.460,368.251 356.419,367.912 356.197 C 367.248 355.762,365.625 355.730,365.625 356.152 C 365.625 356.313,365.779 356.447,365.967 356.448 C 366.259 356.451,366.266 356.479,366.016 356.641 C 365.583 356.920,365.231 356.876,365.354 356.557 C 365.433 356.351,365.350 356.307,365.039 356.389 C 364.741 356.467,364.645 356.608,364.714 356.871 C 364.791 357.165,364.734 357.218,364.437 357.124 C 364.228 357.057,364.063 357.097,364.063 357.213 C 364.063 357.350,364.905 357.422,366.509 357.422 L 368.955 357.422 369.167 356.885 C 369.365 356.383,369.390 356.374,369.539 356.738 C 369.627 356.953,369.705 357.014,369.713 356.873 C 369.720 356.733,369.826 356.679,369.948 356.755 C 370.091 356.843,370.004 356.981,369.704 357.144 C 369.312 357.356,369.969 357.398,373.860 357.412 C 378.402 357.429,378.479 357.422,378.378 357.035 C 378.260 356.584,378.076 356.546,377.562 356.867 C 377.147 357.126,376.561 356.968,376.565 356.598 C 376.568 356.395,376.598 356.395,376.727 356.598 C 376.855 356.800,376.985 356.796,377.403 356.579 L 377.920 356.311 377.443 356.056 C 377.057 355.849,376.910 355.848,376.667 356.049 C 376.501 356.187,376.367 356.210,376.367 356.101 C 376.367 355.811,375.646 355.674,375.039 355.848 C 374.747 355.932,374.311 355.928,374.070 355.839 C 373.801 355.739,373.633 355.752,373.633 355.872 C 373.633 355.979,373.765 356.118,373.926 356.179 C 374.087 356.241,374.219 356.370,374.219 356.466 C 374.219 356.732,373.679 356.674,373.566 356.396 C 373.488 356.203,373.431 356.204,373.291 356.402 C 373.159 356.588,373.058 356.527,372.890 356.158 C 372.661 355.656,372.625 355.641,372.021 355.799 M340.234 356.383 C 340.234 356.631,340.195 356.630,339.941 356.376 C 339.780 356.214,339.648 356.035,339.648 355.977 C 339.648 355.919,339.780 355.922,339.941 355.984 C 340.103 356.046,340.234 356.225,340.234 356.383 M343.591 356.554 C 343.092 356.895,342.188 357.018,342.188 356.745 C 342.188 356.600,342.400 356.544,342.754 356.596 C 343.208 356.663,343.348 356.592,343.459 356.244 C 343.563 355.916,343.637 355.872,343.758 356.068 C 343.861 356.234,343.800 356.411,343.591 356.554 M357.715 356.055 C 357.783 356.165,357.619 356.250,357.336 356.250 C 356.966 356.250,356.836 356.352,356.836 356.641 C 356.836 356.855,356.748 357.031,356.641 357.031 C 356.533 357.031,356.444 356.921,356.442 356.787 C 356.439 356.526,356.063 357.003,356.058 357.275 C 356.056 357.356,357.263 357.421,358.740 357.419 C 360.217 357.417,361.328 357.351,361.208 357.272 C 361.076 357.185,361.051 356.976,361.146 356.738 C 361.277 356.407,361.303 356.400,361.314 356.689 C 361.330 357.077,361.626 357.144,361.835 356.806 C 362.075 356.417,361.305 355.994,360.968 356.331 C 360.690 356.609,360.072 356.437,359.744 355.990 C 359.569 355.751,358.539 355.917,358.447 356.199 C 358.389 356.375,358.541 356.407,358.999 356.315 C 359.452 356.225,359.592 356.253,359.491 356.415 C 359.248 356.809,358.261 356.688,358.147 356.250 C 358.090 356.035,357.943 355.859,357.819 355.859 C 357.695 355.859,357.648 355.947,357.715 356.055 M341.602 356.229 C 341.602 356.404,341.142 356.641,340.804 356.641 C 340.706 356.641,340.625 356.555,340.625 356.451 C 340.625 356.347,340.757 356.313,340.918 356.375 C 341.079 356.437,341.211 356.390,341.211 356.271 C 341.211 356.152,341.299 356.055,341.406 356.055 C 341.514 356.055,341.602 356.133,341.602 356.229 M361.719 357.227 C 361.719 357.334,361.960 357.421,362.256 357.419 C 362.674 357.417,362.728 357.374,362.500 357.227 C 362.118 356.980,361.719 356.980,361.719 357.227 " stroke="none" fill="#04a2ea" fill-rule="evenodd"></path></g></svg>